<svg xmlns="http://www.w3.org/2000/svg" xmlns:xlink="http://www.w3.org/1999/xlink" width="2306" zoomAndPan="magnify" viewBox="0 0 1729.5 1133.999944" height="1512" preserveAspectRatio="xMidYMid meet" version="1.0"><defs><clipPath id="9cb73f891b"><path d="M 0 0.164062 L 1729 0.164062 L 1729 1133.835938 L 0 1133.835938 Z M 0 0.164062 " clip-rule="nonzero"/></clipPath><clipPath id="b855ecacc8"><path d="M 0 0.164062 L 1729 0.164062 L 1729 1133.835938 L 0 1133.835938 Z M 0 0.164062 " clip-rule="nonzero"/></clipPath><clipPath id="4c963285b8"><path d="M 101.792969 0.164062 L 1554.304688 0.164062 L 1554.304688 1133.835938 L 101.792969 1133.835938 Z M 101.792969 0.164062 " clip-rule="nonzero"/></clipPath><clipPath id="b96e672d85"><rect x="0" width="1729" y="0" height="1134"/></clipPath></defs><g clip-path="url(#9cb73f891b)"><path fill="#ffffff" d="M 0 0.164062 L 1729 0.164062 L 1729 1133.835938 L 0 1133.835938 Z M 0 0.164062 " fill-opacity="1" fill-rule="nonzero"/><g transform="matrix(1, 0, 0, 1, 0, -0.00000000000014222)"><g clip-path="url(#b96e672d85)"><g clip-path="url(#b855ecacc8)"><path fill="#ffffff" d="M 0 0.164062 L 1729.214844 0.164062 L 1729.214844 1133.976562 L 0 1133.976562 Z M 0 0.164062 " fill-opacity="1" fill-rule="nonzero"/></g><g clip-path="url(#4c963285b8)"><path fill="#fefefe" d="M 101.796875 -95.71875 L 1554.304688 -95.71875 L 1554.304688 1299.050781 L 101.796875 1299.050781 Z M 101.796875 -95.71875 " fill-opacity="1" fill-rule="nonzero"/></g><path fill="#253541" d="M 537.269531 375.949219 L 542.242188 375.972656 C 546.199219 376.195312 546.199219 376.195312 548.824219 377.503906 C 548.140625 379.902344 548.140625 379.902344 546.199219 382.75 C 542.796875 384.230469 539.667969 385.332031 536.125 386.355469 L 532.894531 387.328125 C 510.054688 394.074219 486.835938 399.789062 463.613281 405.035156 C 462.738281 407.332031 462.738281 407.332031 462.300781 410.277344 C 462.929688 413.621094 462.929688 413.621094 464.144531 417.195312 L 465.449219 421.390625 L 466.890625 425.925781 C 470.910156 439.007812 474.53125 452.097656 477.707031 465.417969 L 478.855469 470.242188 C 480.480469 477.132812 482.058594 484.03125 483.519531 490.957031 L 484.207031 494.207031 C 484.605469 496.105469 484.984375 498.003906 485.351562 499.90625 C 486.695312 506.417969 489.066406 512.078125 492.453125 517.769531 C 495.113281 521.078125 495.113281 521.078125 499.007812 523.011719 C 508.519531 525.738281 517.96875 526.019531 527.796875 525.984375 L 532.285156 525.992188 C 537.089844 526 541.890625 525.984375 546.691406 525.960938 L 551.710938 525.949219 C 577.550781 525.867188 603.222656 525.265625 628.988281 523.292969 C 633.269531 522.972656 637.550781 522.660156 641.832031 522.351562 C 703.757812 517.839844 763.78125 511.675781 823.914062 495.660156 C 843.660156 490.417969 863.464844 486.304688 883.683594 483.359375 L 888.101562 482.710938 C 955.28125 473.414062 1026.269531 482.46875 1091.546875 499.417969 L 1095.15625 500.351562 C 1116.238281 505.949219 1137.230469 513.230469 1154.472656 526.945312 L 1158.242188 529.648438 C 1161.765625 532.859375 1164.035156 535.832031 1166.269531 540.054688 C 1166.75 544.503906 1166.75 544.503906 1166.269531 549.230469 C 1157.414062 562.300781 1141.308594 571.59375 1127.597656 578.890625 C 1077.574219 602.816406 1020.152344 603.4375 965.867188 599.550781 C 919.238281 595.886719 873.566406 585.75 828.050781 575.449219 L 828.050781 572.824219 C 832.390625 572.117188 836.734375 571.445312 841.078125 570.777344 L 844.757812 570.175781 C 858.933594 568.039062 871.097656 570.875 884.992188 573.890625 C 954.160156 588.46875 1027.988281 595.949219 1096.378906 573.808594 C 1112.09375 568.488281 1131.230469 561.785156 1142.671875 549.230469 L 1142.671875 545.296875 C 1139.941406 543.273438 1137.101562 541.414062 1134.152344 539.726562 L 1131.464844 538.15625 C 1083.507812 510.726562 1023.796875 501.484375 969.382812 496.957031 L 966.472656 496.714844 C 933.292969 493.996094 902.183594 496.363281 869.925781 504.65625 C 835.710938 513.410156 801.363281 521.597656 766.4375 526.945312 L 763.230469 527.4375 C 718.171875 534.308594 672.988281 537.324219 627.519531 539.824219 C 624.199219 540.015625 620.882812 540.230469 617.5625 540.46875 C 598.238281 541.804688 578.847656 541.703125 559.484375 541.75 C 554.214844 541.765625 548.945312 541.8125 543.671875 541.863281 C 539.546875 541.898438 535.417969 541.910156 531.292969 541.914062 C 529.351562 541.917969 527.410156 541.933594 525.46875 541.957031 C 510.175781 542.140625 494.839844 540.722656 481.230469 533.089844 C 476.238281 529.480469 472.128906 525.644531 468.855469 520.390625 C 466.652344 514.378906 465.304688 508.199219 463.941406 501.957031 C 463.511719 500.097656 463.082031 498.238281 462.652344 496.382812 C 461.1875 489.972656 459.757812 483.558594 458.367188 477.132812 L 457.53125 473.300781 C 454.871094 461.09375 452.207031 448.882812 449.617188 436.660156 L 448.800781 432.816406 C 448.289062 430.433594 447.785156 428.050781 447.289062 425.664062 C 446.140625 420.300781 444.917969 415.296875 442.636719 410.277344 C 431.046875 412.242188 419.484375 414.363281 407.949219 416.644531 C 362.09375 425.707031 362.09375 425.707031 346.941406 424.695312 C 344.011719 423.363281 344.011719 423.363281 341.695312 422.074219 C 341.910156 419.644531 341.910156 419.644531 343.007812 416.832031 C 369.171875 402.175781 405.664062 398.925781 434.773438 393.234375 L 438.929688 392.421875 C 450.433594 390.167969 461.9375 387.929688 473.445312 385.699219 L 478.445312 384.726562 C 483.238281 383.796875 488.027344 382.871094 492.820312 381.949219 L 497.140625 381.113281 C 524.8125 375.804688 524.8125 375.804688 537.269531 375.949219 M 417.730469 698.667969 L 446.570312 698.667969 L 447.882812 699.980469 C 448.007812 703.171875 448.046875 706.324219 448.03125 709.515625 L 448.03125 712.539062 C 448.03125 715.851562 448.019531 719.164062 448.011719 722.476562 L 448.003906 729.347656 C 447.996094 735.386719 447.988281 741.429688 447.972656 747.46875 C 447.960938 753.628906 447.949219 759.789062 447.945312 765.945312 C 447.933594 778.039062 447.910156 790.136719 447.882812 802.230469 L 452.867188 797.875 L 455.667969 795.429688 C 459.328125 792.210938 462.910156 788.914062 466.480469 785.597656 L 470.914062 781.492188 L 473.167969 779.398438 C 476.78125 776.054688 480.394531 772.714844 484.011719 769.375 L 487.789062 765.886719 L 489.957031 764 C 492.65625 761.503906 492.65625 761.503906 495.34375 757.925781 C 499.105469 753.441406 502.84375 749.710938 508.183594 747.171875 C 518.777344 744.832031 529.875 745.8125 540.628906 746.273438 C 543.589844 746.34375 546.550781 746.410156 549.507812 746.46875 C 556.714844 746.625 563.910156 746.867188 571.109375 747.171875 C 574.808594 754.449219 578.394531 761.710938 581.523438 769.253906 L 582.527344 771.652344 C 583.585938 774.195312 584.640625 776.742188 585.691406 779.289062 C 587.1875 782.886719 588.683594 786.484375 590.183594 790.082031 L 591.320312 792.816406 C 593.851562 798.902344 596.425781 804.960938 599.023438 811.015625 L 601.046875 815.746094 C 602.3125 818.699219 603.585938 821.648438 604.863281 824.597656 L 606.570312 828.589844 L 608.074219 832.070312 C 609.125 835 609.125 835 609.125 838.933594 L 611.746094 838.933594 L 613.226562 834.164062 C 616.101562 825.5625 619.8125 817.324219 623.464844 809.027344 C 624.988281 805.542969 626.511719 802.058594 628.03125 798.574219 L 629.203125 795.890625 C 631.917969 789.679688 634.59375 783.449219 637.25 777.210938 L 638.339844 774.648438 C 640.0625 770.601562 641.78125 766.554688 643.496094 762.507812 L 645.355469 758.136719 L 646.980469 754.296875 C 648.453125 751.105469 648.453125 751.105469 651.074219 747.171875 C 653.78125 746.726562 653.78125 746.726562 657.066406 746.789062 L 660.625 746.828125 L 664.347656 746.925781 L 668.101562 746.980469 C 671.167969 747.027344 674.230469 747.089844 677.292969 747.171875 L 678.605469 749.792969 C 677.394531 753.054688 676.074219 756.265625 674.640625 759.433594 L 673.320312 762.441406 C 671.871094 765.738281 670.402344 769.03125 668.9375 772.324219 L 665.882812 779.25 C 663.761719 784.066406 661.636719 788.882812 659.507812 793.695312 C 655.058594 803.789062 650.636719 813.898438 646.242188 824.019531 C 644.847656 827.214844 643.457031 830.410156 642.058594 833.605469 C 637.703125 843.5625 633.390625 853.539062 629.121094 863.53125 C 627.976562 866.207031 626.832031 868.882812 625.6875 871.558594 C 624.652344 873.980469 623.632812 876.40625 622.605469 878.835938 C 617.074219 891.765625 611.484375 903.660156 600.488281 912.746094 C 593.003906 918 585.472656 920.316406 576.433594 921.355469 C 564.847656 921.929688 555.699219 919.957031 545.300781 914.800781 C 542.964844 913.566406 540.644531 912.308594 538.335938 911.03125 C 539.101562 905.234375 541.308594 901.179688 544.316406 896.203125 L 546.859375 891.957031 L 548.824219 888.746094 L 551.75 889.921875 L 555.378906 891.367188 L 558.183594 892.53125 C 563.425781 894.519531 567.773438 895.617188 573.402344 895.136719 C 576.726562 894.578125 579.421875 893.820312 582.578125 892.597656 C 586.84375 888.925781 589.832031 884.730469 592.082031 879.570312 C 593.21875 875.324219 593.21875 875.324219 593.394531 870.394531 C 592.242188 866.722656 591.042969 863.566406 589.429688 860.113281 L 588.109375 857.132812 C 586.667969 853.894531 585.199219 850.675781 583.726562 847.453125 C 582.714844 845.195312 581.703125 842.929688 580.695312 840.667969 C 578.585938 835.9375 576.46875 831.214844 574.34375 826.492188 C 569.617188 815.96875 565.019531 805.386719 560.421875 794.804688 C 559.015625 791.574219 557.605469 788.34375 556.195312 785.117188 C 551.449219 774.257812 546.773438 763.378906 542.269531 752.414062 C 538.214844 754.21875 535.457031 756.285156 532.339844 759.425781 L 529.636719 762.128906 L 526.761719 765.042969 L 523.785156 768.03125 C 520.65625 771.175781 517.535156 774.332031 514.410156 777.484375 L 508.039062 783.894531 C 502.839844 789.125 497.644531 794.363281 492.453125 799.605469 C 494.679688 803.417969 496.921875 807.035156 499.703125 810.457031 L 501.589844 812.796875 L 503.597656 815.253906 C 505.015625 817.011719 506.433594 818.769531 507.851562 820.53125 L 510.015625 823.210938 C 513.179688 827.144531 516.296875 831.113281 519.410156 835.082031 L 521.171875 837.332031 L 524.714844 841.851562 C 527.914062 845.933594 531.117188 850.011719 534.320312 854.089844 C 534.910156 854.839844 535.496094 855.589844 536.101562 856.363281 C 538.683594 859.652344 541.277344 862.90625 543.996094 866.089844 L 546.199219 869.082031 L 546.199219 873.015625 C 534.925781 874.066406 523.3125 875.125 512.117188 873.015625 C 507.382812 870.597656 504.765625 867.285156 501.832031 862.953125 C 500.851562 861.378906 499.90625 859.789062 498.992188 858.179688 C 497.152344 855.046875 494.875 852.359375 492.535156 849.585938 L 490.082031 846.480469 C 487.761719 843.566406 485.421875 840.664062 483.066406 837.777344 L 480.878906 835.078125 C 479.4375 833.300781 477.988281 831.527344 476.539062 829.757812 C 474.804688 827.613281 473.132812 825.410156 471.476562 823.203125 L 471.476562 820.582031 C 469.285156 821.878906 467.101562 823.191406 464.921875 824.515625 L 460.886719 826.855469 C 455.90625 830.433594 451.996094 833.390625 449.191406 838.933594 C 446.839844 850.097656 447.449219 861.679688 447.882812 873.015625 L 417.730469 873.015625 Z M 700.890625 707.847656 C 792.335938 707.847656 792.335938 707.847656 808.386719 715.710938 C 818.167969 721.375 826.375 728.34375 832.304688 738.046875 C 838.019531 748.890625 839.238281 759.535156 838.9375 771.605469 C 838.417969 781.390625 835.875 789.832031 831.027344 798.34375 C 825.542969 806.476562 819.734375 812.167969 811.007812 816.648438 C 792.910156 825.417969 776.191406 826.292969 756.441406 826.644531 L 749.421875 826.796875 C 743.730469 826.921875 738.042969 827.035156 732.351562 827.136719 L 732.253906 831.207031 C 732.128906 836.171875 732 841.140625 731.863281 846.105469 C 731.808594 848.257812 731.753906 850.410156 731.703125 852.5625 C 731.625 855.652344 731.542969 858.738281 731.457031 861.828125 L 731.390625 864.761719 C 731.3125 867.078125 731.199219 869.394531 731.042969 871.707031 L 729.730469 873.015625 L 700.890625 873.015625 Z M 700.890625 707.847656 " fill-opacity="1" fill-rule="nonzero"/><path fill="#253541" d="M 213.226562 490.242188 C 226 495.675781 235.03125 512.070312 243.183594 522.824219 C 255.335938 539.652344 255.335938 539.652344 272.257812 550.929688 C 298.636719 560.679688 327.332031 560.632812 355.105469 561.734375 C 359.742188 561.921875 364.378906 562.125 369.015625 562.328125 C 377.347656 562.6875 385.679688 563.027344 394.015625 563.34375 C 399.792969 563.5625 405.570312 563.800781 411.347656 564.042969 C 441.992188 565.261719 472.648438 565.207031 503.3125 565.203125 C 509.542969 565.203125 515.773438 565.210938 522.003906 565.230469 C 559.320312 565.335938 596.46875 564.910156 633.714844 562.527344 C 636.628906 562.339844 639.542969 562.160156 642.453125 561.984375 C 655.492188 561.183594 668.527344 560.320312 681.554688 559.390625 L 684.515625 559.179688 C 746.804688 554.785156 808.824219 548.109375 870.808594 540.601562 L 875.054688 540.089844 C 880.136719 539.46875 885.1875 538.835938 890.234375 537.984375 C 895.375 537.140625 900.445312 537.191406 905.640625 537.1875 L 908.84375 537.136719 L 911.925781 537.128906 L 914.707031 537.113281 C 917.195312 537.433594 917.195312 537.433594 921.125 540.054688 C 921.78125 543.167969 921.78125 543.167969 921.125 546.609375 C 918.386719 549.414062 915.816406 551.394531 912.109375 552.757812 C 909.015625 553.605469 905.914062 554.304688 902.773438 554.964844 L 898.984375 555.78125 C 842.410156 567.578125 784.625 573.351562 727.027344 577.085938 L 722.378906 577.390625 C 710.414062 578.164062 698.445312 578.800781 686.46875 579.378906 L 683 579.550781 C 636.292969 581.828125 589.671875 582.378906 542.917969 582.257812 C 536.003906 582.246094 529.085938 582.246094 522.171875 582.246094 C 469.265625 582.246094 416.628906 581.332031 363.820312 578.078125 C 359.21875 577.796875 354.613281 577.523438 350.007812 577.261719 C 326.894531 575.9375 303.835938 574.460938 280.851562 571.621094 L 275.929688 571.039062 C 265.378906 569.636719 255.554688 567.542969 246.683594 561.398438 C 239.726562 554.140625 234.929688 546.179688 230.183594 537.351562 L 227.789062 532.960938 C 212.109375 504.03125 212.109375 504.03125 211.617188 495.699219 L 211.914062 491.550781 Z M 1300.769531 749.792969 C 1311.242188 754.714844 1320.25 761.011719 1327.1875 770.359375 C 1333.296875 779.667969 1337.953125 789.808594 1339.3125 800.917969 C 1339.429688 803.894531 1339.484375 806.871094 1339.476562 809.847656 L 1339.488281 814.378906 L 1339.3125 817.960938 L 1338 819.269531 C 1326.402344 820.917969 1314.640625 820.753906 1302.953125 820.710938 L 1297.554688 820.703125 C 1292.875 820.699219 1288.195312 820.6875 1283.515625 820.671875 C 1278.714844 820.660156 1273.914062 820.652344 1269.117188 820.644531 C 1259.742188 820.632812 1250.367188 820.609375 1240.992188 820.582031 C 1241.585938 822.460938 1242.183594 824.335938 1242.789062 826.214844 C 1243.125 827.257812 1243.457031 828.304688 1243.800781 829.382812 C 1245.105469 832.859375 1246.792969 835.722656 1249.304688 838.476562 C 1254.882812 843.007812 1261.75 845.851562 1268.523438 848.109375 C 1278.703125 849.039062 1290.890625 849.988281 1300.394531 845.816406 C 1302.945312 844.429688 1302.945312 844.429688 1305.226562 842.867188 L 1307.667969 841.351562 C 1309.507812 840.15625 1311.316406 838.914062 1313.09375 837.621094 C 1318.183594 839.65625 1321 842.871094 1324.5625 846.960938 L 1327.738281 850.578125 L 1330.136719 853.351562 C 1326.707031 859.71875 1322.886719 862.972656 1316.929688 866.925781 C 1304.390625 873.976562 1290.601562 875.757812 1276.386719 875.636719 C 1262.65625 874.804688 1249.398438 871.707031 1237.628906 864.363281 C 1227.585938 856.917969 1220.046875 848.234375 1214.769531 836.886719 C 1212.921875 832.363281 1211.652344 828.015625 1210.839844 823.203125 L 1210.308594 820.332031 C 1208.753906 809.621094 1209.425781 798.171875 1213.035156 787.925781 C 1217.835938 776.28125 1224.171875 766.535156 1234.121094 758.769531 C 1243.742188 751.964844 1252.421875 748.558594 1263.851562 746.273438 C 1276.371094 745.171875 1288.890625 745.222656 1300.769531 749.792969 M 327.605469 706.125 C 329.050781 706.132812 330.496094 706.140625 331.988281 706.148438 C 349.40625 706.40625 365.691406 709.710938 381.023438 718.332031 L 382.335938 722.265625 C 381.179688 725.890625 379.894531 729.464844 378.484375 733 L 377.328125 735.976562 C 376.382812 738.398438 375.429688 740.820312 374.46875 743.238281 C 369.238281 742.378906 364.703125 740.746094 359.804688 738.734375 C 344.792969 732.917969 330.605469 731.332031 314.496094 733.164062 C 308.140625 734.363281 303.585938 736.570312 298.4375 740.617188 C 296.082031 742.527344 296.082031 742.527344 294.503906 744.550781 C 292.933594 749.253906 292.855469 752.710938 293.191406 757.660156 C 294.304688 761.960938 294.304688 761.960938 297.125 765.523438 C 304.214844 770.164062 312.296875 772.367188 320.394531 774.535156 C 322.828125 775.214844 325.265625 775.898438 327.699219 776.582031 C 331.371094 777.597656 335.042969 778.605469 338.71875 779.605469 C 369.035156 787.910156 369.035156 787.910156 379.9375 798.417969 C 384.871094 804.207031 387.808594 810.066406 389.632812 817.441406 C 391.25 826.382812 390.0625 834.199219 387.710938 842.910156 C 384.96875 850.289062 380.375 855.496094 374.714844 860.839844 C 366.019531 867.976562 355.234375 872.285156 344.316406 874.734375 C 322.5 878.007812 299.394531 876.390625 278.789062 868.402344 C 264.628906 862.65625 264.628906 862.65625 259.109375 857.285156 C 258.757812 848.726562 263.285156 841.21875 266.972656 833.691406 C 272.300781 834.488281 276.324219 836.25 281.066406 838.769531 C 295.492188 846.113281 309.929688 849.90625 326.246094 849.328125 C 336.460938 848.757812 344.347656 847.125 353.332031 842.046875 C 356.140625 838.910156 356.964844 837.242188 358.082031 833.28125 C 358.816406 828.898438 358.636719 826.695312 357.589844 822.21875 C 354.808594 817.964844 352.335938 815.722656 348.007812 813.125 C 339.480469 809.152344 330.128906 807.191406 321.050781 804.851562 C 283.558594 795.101562 283.558594 795.101562 270.992188 783.023438 C 266.308594 777.699219 263.964844 772.234375 261.730469 765.523438 C 260.402344 746.171875 260.402344 746.171875 263.859375 737.996094 C 265.328125 735.308594 265.328125 735.308594 266.972656 732.753906 L 268.65625 729.992188 C 274.09375 721.921875 281.082031 717.363281 289.558594 712.84375 C 301.761719 706.976562 314.222656 706.054688 327.605469 706.125 M 1383.882812 188.738281 C 1386.652344 188.277344 1386.652344 188.277344 1390.4375 188.738281 C 1393.324219 190.996094 1396.027344 193.453125 1398.550781 196.113281 L 1400.796875 198.425781 C 1412.46875 210.71875 1423.050781 224.960938 1428.457031 241.175781 C 1428.78125 245.597656 1428.78125 245.597656 1428.457031 250.351562 C 1422.308594 262.3125 1409.636719 269.863281 1399.144531 277.800781 C 1392.910156 282.527344 1386.757812 287.359375 1380.6875 292.296875 C 1370.796875 300.292969 1360.515625 307.695312 1350.160156 315.070312 C 1347.261719 317.144531 1344.375 319.234375 1341.492188 321.332031 C 1307.667969 345.945312 1273.226562 369.980469 1237.328125 391.484375 C 1234.257812 393.351562 1231.207031 395.242188 1228.171875 397.15625 C 1202.960938 412.996094 1177.097656 427.667969 1150.867188 441.738281 L 1146.527344 444.066406 C 1127.789062 454.042969 1108.746094 463.269531 1089.457031 472.128906 C 1083.800781 474.738281 1078.140625 477.34375 1072.480469 479.949219 L 1069.394531 481.371094 C 1054.503906 488.203125 1054.503906 488.203125 1045.664062 487.617188 C 1041.875 486.941406 1038.167969 486.035156 1034.441406 485.078125 C 1028.148438 483.503906 1021.933594 482.027344 1015.511719 481.066406 L 1016.824219 477.132812 C 1019.703125 475.691406 1019.703125 475.691406 1023.542969 474.339844 L 1027.855469 472.792969 L 1032.554688 471.152344 C 1035.824219 469.972656 1039.09375 468.789062 1042.359375 467.601562 L 1044.882812 466.691406 C 1097.589844 447.632812 1147.113281 422.015625 1195.109375 393.234375 L 1199.027344 390.890625 C 1202.941406 388.539062 1206.855469 386.179688 1210.761719 383.816406 L 1214.183594 381.742188 C 1232.511719 370.558594 1250.386719 358.644531 1268.238281 346.726562 C 1271.226562 344.734375 1274.21875 342.742188 1277.210938 340.75 C 1293.84375 329.664062 1310.378906 318.433594 1326.695312 306.882812 L 1329.449219 304.933594 C 1340.214844 297.292969 1350.929688 289.585938 1361.597656 281.8125 L 1364.914062 279.398438 C 1368.261719 276.957031 1371.609375 274.511719 1374.953125 272.0625 L 1378.042969 269.808594 C 1389.453125 261.839844 1389.453125 261.839844 1398.222656 251.332031 C 1400.042969 244.910156 1400.664062 239.933594 1399.613281 233.308594 C 1396.742188 222.714844 1392.6875 212.546875 1387.664062 202.796875 C 1385.070312 197.730469 1383.882812 194.5 1383.882812 188.738281 M 868.6875 747.171875 L 897.53125 747.171875 L 897.585938 753.660156 C 897.664062 761.664062 897.765625 769.667969 897.875 777.671875 C 897.917969 781.125 897.953125 784.578125 897.984375 788.03125 C 898.027344 793.015625 898.097656 798 898.167969 802.988281 L 898.195312 807.605469 C 898.394531 818.871094 899.304688 830.453125 905.148438 840.324219 C 909.898438 844.53125 914.972656 846.808594 921.125 848.109375 C 929.917969 849 937.90625 847.613281 946.035156 844.175781 C 950.101562 841.878906 952.972656 839.09375 955.492188 835.097656 C 959.328125 827.851562 960.59375 821.296875 960.722656 813.097656 L 960.800781 808.644531 L 960.867188 803.882812 L 960.949219 798.972656 C 961.023438 794.683594 961.089844 790.390625 961.152344 786.101562 C 961.21875 781.714844 961.289062 777.332031 961.363281 772.945312 C 961.503906 764.355469 961.636719 755.765625 961.765625 747.171875 C 966.542969 747.136719 971.324219 747.109375 976.105469 747.089844 L 980.238281 747.058594 L 984.167969 747.042969 L 987.808594 747.023438 L 990.605469 747.171875 L 991.917969 748.484375 C 992.039062 752.351562 992.082031 756.191406 992.066406 760.0625 L 992.066406 763.746094 C 992.066406 767.78125 992.054688 771.816406 992.042969 775.851562 L 992.039062 784.222656 C 992.03125 791.582031 992.023438 798.941406 992.007812 806.300781 C 991.996094 813.804688 991.984375 821.308594 991.980469 828.8125 C 991.96875 843.546875 991.941406 858.28125 991.917969 873.015625 L 963.074219 873.015625 L 961.765625 859.90625 L 957.914062 863.511719 C 950.765625 869.585938 943.109375 872.714844 933.992188 874.738281 C 922.023438 876.613281 909.328125 875.617188 897.839844 871.707031 C 889.609375 868.027344 883.03125 861.875 877.261719 855.039062 C 873.660156 849.6875 871.777344 843.777344 870 837.621094 L 869.292969 835.320312 C 868.503906 831.488281 868.535156 827.875 868.539062 823.960938 L 868.539062 818.792969 L 868.5625 813.230469 L 868.566406 807.519531 C 868.574219 802.519531 868.582031 797.519531 868.597656 792.519531 C 868.609375 787.414062 868.621094 782.308594 868.625 777.203125 C 868.640625 767.195312 868.660156 757.183594 868.6875 747.171875 M 1189.867188 755.039062 C 1189.136719 761.183594 1187.398438 765.785156 1184.542969 771.257812 L 1182.367188 775.46875 L 1180.691406 778.632812 C 1175.003906 777.621094 1170.265625 775.664062 1164.957031 773.390625 C 1158.007812 771.707031 1151.179688 771.789062 1144.066406 771.75 L 1140.1875 771.667969 C 1134.472656 771.636719 1130.269531 771.804688 1124.886719 773.882812 C 1121.578125 775.898438 1121.578125 775.898438 1119.078125 778.960938 C 1117.5 782.65625 1117.5 782.65625 1117.765625 787.238281 L 1120.386719 791.742188 C 1127.90625 795.714844 1136.726562 796.863281 1145.003906 798.480469 C 1175.339844 804.410156 1175.339844 804.410156 1184.621094 811.40625 C 1187.835938 814.644531 1190.257812 817.921875 1192.488281 821.890625 L 1194.289062 825.003906 C 1195.902344 831.777344 1195.976562 838.242188 1194.210938 844.996094 C 1191.929688 851.226562 1189.113281 856.867188 1184.570312 861.746094 C 1176.292969 868.488281 1166.167969 872.316406 1155.78125 874.328125 C 1133.828125 877.027344 1113.714844 874.871094 1093.203125 866.269531 C 1090.445312 865.0625 1087.710938 863.816406 1084.992188 862.527344 C 1085.804688 856.980469 1087.75 852.667969 1090.320312 847.699219 L 1092.496094 843.453125 L 1094.167969 840.246094 C 1101.875 841.277344 1108.640625 843.863281 1115.882812 846.59375 C 1127.902344 850.636719 1142.003906 850.8125 1154.523438 848.769531 C 1158.019531 847.871094 1158.019531 847.871094 1162.335938 845.488281 C 1164.707031 842.519531 1164.707031 842.519531 1164.957031 838.933594 C 1164.859375 835.488281 1164.859375 835.488281 1163.648438 832.378906 C 1162.132812 830.199219 1162.132812 830.199219 1159.714844 828.445312 C 1156.082031 827.265625 1156.082031 827.265625 1151.902344 826.527344 L 1147.152344 825.5625 L 1142.179688 824.597656 C 1107.3125 817.722656 1107.3125 817.722656 1097.554688 809.523438 C 1093.171875 805.1875 1090.726562 800.929688 1088.597656 795.183594 C 1087.09375 787.910156 1086.761719 781.738281 1089.089844 774.699219 C 1092.15625 767.488281 1096.117188 761.453125 1102.421875 756.703125 C 1128.914062 740.042969 1161.976562 743.777344 1189.867188 755.039062 M 1029.933594 697.359375 L 1060.085938 697.359375 L 1061.394531 698.667969 C 1061.523438 700.921875 1061.5625 703.179688 1061.5625 705.4375 L 1061.574219 709.882812 L 1061.566406 714.804688 L 1061.574219 719.949219 C 1061.578125 724.621094 1061.578125 729.292969 1061.574219 733.964844 C 1061.570312 738.84375 1061.574219 743.722656 1061.574219 748.601562 C 1061.574219 756.796875 1061.574219 764.992188 1061.566406 773.183594 C 1061.558594 782.671875 1061.5625 792.160156 1061.570312 801.648438 C 1061.574219 809.777344 1061.574219 817.910156 1061.574219 826.042969 C 1061.570312 830.902344 1061.570312 835.765625 1061.574219 840.628906 C 1061.578125 846.046875 1061.574219 851.464844 1061.566406 856.882812 L 1061.574219 861.804688 L 1061.5625 866.25 L 1061.5625 870.136719 L 1061.394531 873.015625 L 1060.085938 874.328125 L 1029.933594 874.328125 Z M 1029.933594 697.359375 " fill-opacity="1" fill-rule="nonzero"/><path fill="#fefefe" d="M 731.042969 734.0625 L 752.34375 733.816406 L 758.960938 733.710938 C 771.054688 733.59375 783.292969 733.730469 794.257812 739.539062 C 799.492188 742.882812 802.800781 746.925781 805.765625 752.414062 C 808.0625 758.734375 808.953125 764.070312 808.386719 770.769531 C 807.125 777.328125 805.289062 783.417969 801.339844 788.875 C 795.957031 794.222656 789.460938 796.882812 782.238281 799.007812 C 773.148438 801.027344 763.464844 800.25 754.230469 800.015625 L 731.042969 799.605469 Z M 1292.609375 773.0625 C 1298.582031 776.449219 1302.605469 780.921875 1306.867188 786.253906 C 1309.160156 790.429688 1309.160156 790.429688 1310.472656 800.917969 L 1239.683594 800.917969 C 1240.839844 792.828125 1241.378906 789.988281 1245.550781 783.78125 C 1249.601562 778.660156 1254.222656 774.703125 1260 771.667969 C 1270.71875 768.722656 1282.351562 768.273438 1292.609375 773.0625 " fill-opacity="1" fill-rule="nonzero"/><path fill="#a64a39" d="M 1284.253906 525.632812 L 1284.253906 534.808594 C 1272.984375 536.828125 1261.71875 538.285156 1250.332031 539.480469 C 1247.25 539.808594 1244.167969 540.136719 1241.085938 540.46875 L 1237.019531 540.898438 C 1234.328125 541.21875 1231.644531 541.613281 1228.976562 542.066406 C 1224.710938 542.765625 1220.648438 542.851562 1216.332031 542.839844 L 1211.796875 542.851562 L 1208.21875 542.675781 L 1206.910156 541.363281 C 1206.855469 539.179688 1206.855469 536.996094 1206.910156 534.808594 C 1210.496094 532.839844 1213.472656 531.78125 1217.53125 531.289062 L 1220.703125 530.890625 L 1224.109375 530.5 L 1227.667969 530.070312 C 1230.15625 529.773438 1232.644531 529.480469 1235.136719 529.191406 C 1238.890625 528.753906 1242.644531 528.296875 1246.398438 527.835938 C 1259.078125 526.320312 1271.464844 525.125 1284.253906 525.632812 M 1243.613281 462.710938 C 1247.21875 462.222656 1247.21875 462.222656 1250.167969 462.710938 L 1251.480469 464.023438 C 1251.800781 467.089844 1251.800781 467.089844 1251.480469 470.578125 C 1249.890625 473 1249.890625 473 1247.632812 475.273438 L 1245.085938 477.882812 L 1242.292969 480.632812 L 1239.441406 483.503906 C 1237.445312 485.507812 1235.441406 487.5 1233.429688 489.484375 C 1230.363281 492.523438 1227.316406 495.585938 1224.289062 498.664062 C 1222.34375 500.605469 1220.398438 502.542969 1218.453125 504.476562 L 1215.707031 507.261719 C 1211.648438 511.21875 1209.207031 513.570312 1203.648438 515.078125 L 1200.355469 515.148438 L 1197.730469 508.59375 L 1237.058594 469.265625 L 1240.585938 465.546875 Z M 1205.597656 563.648438 C 1215.96875 564.996094 1224.484375 569.386719 1233.703125 574.136719 L 1238.019531 576.308594 C 1248.46875 581.613281 1248.46875 581.613281 1251.480469 584.625 C 1251.726562 587.984375 1251.726562 587.984375 1251.480469 591.179688 L 1250.167969 592.488281 C 1242.652344 591.976562 1236.882812 589.65625 1230.175781 586.34375 L 1227.242188 584.914062 C 1225.296875 583.964844 1223.359375 583.007812 1221.421875 582.042969 C 1218.988281 580.835938 1216.546875 579.648438 1214.097656 578.480469 L 1210.1875 576.511719 L 1206.785156 574.816406 L 1204.285156 572.824219 C 1203.097656 569.484375 1203.097656 569.484375 1202.976562 566.269531 Z M 1205.597656 563.648438 " fill-opacity="1" fill-rule="nonzero"/><path fill="#253541" d="M 419.042969 419.453125 L 428.21875 419.453125 L 430.839844 424.695312 L 426.90625 427.320312 C 422.074219 426.828125 422.074219 426.828125 417.730469 426.007812 Z M 419.042969 419.453125 " fill-opacity="1" fill-rule="nonzero"/></g></g></g></svg>